<svg enable-background="new 0 0 160 82" viewBox="0 0 160 82" xmlns="http://www.w3.org/2000/svg"><g fill="#fff"><path d="m6.8 5.5h-6.8v-5.5h19.8v5.5h-6.8v17.1h-6.2z"/><path d="m21.8 0h6.2v8.5h8.1v-8.5h6.3v22.6h-6.3v-8.6h-8.1v8.6h-6.3v-22.6z"/><path d="m44.3 0h18.2v5.3h-12v3.5h10.9v4.9h-10.9v3.6h12.2v5.3h-18.4z"/><path d="m0 41c0-6.7 5-11.8 11.9-11.8 4.6 0 7.6 1.9 9.6 4.7l-4.7 3.7c-1.3-1.6-2.8-2.7-4.9-2.7-3.2 0-5.4 2.7-5.4 6v.1c0 3.4 2.2 6 5.4 6 2.4 0 3.8-1.1 5.1-2.7l4.7 3.4c-2.1 2.9-5 5.1-10 5.1-6.5-.1-11.7-5.1-11.7-11.8z"/><path d="m23.4 29.6h10.7c3.5 0 5.9.9 7.4 2.4 1.3 1.3 2 3 2 5.3v.1c0 3.5-1.8 5.8-4.7 7l5.4 7.9h-7.2l-4.6-6.9h-2.8v6.9h-6.3v-22.7zm10.5 10.8c2.1 0 3.4-1 3.4-2.7v-.1c0-1.8-1.3-2.7-3.4-2.7h-4.1v5.5z"/><path d="m45.7 29.6h18.2v5.3h-12v3.5h10.9v4.9h-10.9v3.6h12.1v5.3h-18.3z"/><path d="m94 35.1h-6.8v-5.5h19.8v5.5h-6.8v17.1h-6.2z"/><path d="m109.2 29.6h6.3v22.6h-6.3z"/><path d="m116.5 29.6h7l5.1 14.3 5.2-14.3h6.9l-9.2 22.8h-5.8z"/><path d="m141.6 29.6h18.2v5.3h-12v3.5h10.9v4.9h-10.9v3.6h12.2v5.3h-18.4z"/><path d="m0 59.2h6.6l3.9 13.1 4.4-13.2h5.4l4.4 13.2 3.9-13.1h6.5l-7.5 22.8h-5.5l-4.5-13-4.6 13h-5.4z"/><path d="m34 70.5c0-6.6 5.2-11.8 12.2-11.8s12.2 5.2 12.2 11.7v.1c0 6.5-5.2 11.8-12.2 11.8s-12.2-5.3-12.2-11.8zm18 0c0-3.4-2.3-6.2-5.8-6.2s-5.8 2.8-5.8 6v.1c0 3.3 2.4 6.1 5.8 6.1 3.5.1 5.8-2.7 5.8-6z"/><path d="m60.4 59.2h10.7c3.5 0 5.9.9 7.4 2.4 1.3 1.3 2 3 2 5.3v.1c0 3.5-1.8 5.8-4.7 7l5.4 7.9h-7.2l-4.6-6.9h-2.8v6.9h-6.3v-22.7zm10.4 10.8c2.1 0 3.4-1 3.4-2.7v-.1c0-1.8-1.3-2.7-3.4-2.7h-4.1v5.5z"/><path d="m82.4 59.2h6.3v9.2l7.8-9.2h7.4l-8.6 9.7 8.9 12.9h-7.5l-5.7-8.4-2.3 2.5v5.9h-6.3z"/><path d="m103.1 78.4 3.5-4.2c2.3 1.8 4.7 2.7 7.3 2.7 1.7 0 2.6-.6 2.6-1.6v-.1c0-1-.7-1.5-3.8-2.2-4.8-1.1-8.5-2.5-8.5-7.1v.1c0-4.2 3.3-7.2 8.8-7.2 3.8 0 6.9 1 9.3 3l-3.1 4.4c-2.1-1.5-4.3-2.2-6.3-2.2-1.5 0-2.3.6-2.3 1.5v.1c0 1 .8 1.5 3.9 2.2 5.2 1.1 8.4 2.8 8.4 7v.1c0 4.6-3.7 7.4-9.2 7.4-4-.1-7.8-1.4-10.6-3.9z"/><path d="m124.5 75.5h6.4v6.3h-6.4z"/><path d="m80.6 29.4h-6l-9.6 22.8h25.3zm-7.2 17.9 4.1-10.5 4.1 10.5z"/></g></svg>